<?xml version="1.0" standalone="no"?><!DOCTYPE svg PUBLIC "-//W3C//DTD SVG 1.1//EN" "http://www.w3.org/Graphics/SVG/1.1/DTD/svg11.dtd"><svg t="1660109082856" class="icon" viewBox="0 0 1024 1024" version="1.1" xmlns="http://www.w3.org/2000/svg" p-id="2555" xmlns:xlink="http://www.w3.org/1999/xlink" width="32" height="32"><defs><style type="text/css">@font-face { font-family: feedback-iconfont; src: url("//at.alicdn.com/t/font_1031158_u69w8yhxdu.woff2?t=1630033759944") format("woff2"), url("//at.alicdn.com/t/font_1031158_u69w8yhxdu.woff?t=1630033759944") format("woff"), url("//at.alicdn.com/t/font_1031158_u69w8yhxdu.ttf?t=1630033759944") format("truetype"); }
</style></defs><path d="M544.11 413.25c-20.62 0-37.33-16.72-37.33-37.33V102.56c0-20.62 16.72-37.33 37.33-37.33s37.33 16.72 37.33 37.33v273.36c0 20.62-16.72 37.33-37.33 37.33z" p-id="2556" fill="#edebfc"></path><path d="M544.11 961.22c-247.03 0-448-200.98-448-448 0-137.96 62.44-266.22 171.32-351.93 16.22-12.78 39.69-9.93 52.43 6.23 12.76 16.21 9.96 39.68-6.23 52.43-90.78 71.46-142.84 178.35-142.84 293.27 0 205.86 167.48 373.33 373.33 373.33s373.33-167.47 373.33-373.33c0-114.92-52.06-221.81-142.84-293.27-16.2-12.74-18.99-36.22-6.23-52.43 12.74-16.21 36.21-19.03 52.43-6.23 108.85 85.71 171.3 213.97 171.3 351.93 0 247.03-200.97 448-448 448z" p-id="2557" fill="#edebfc"></path></svg>